# xmcd CD database file generated by LOLA_Freedb v0.9beta0
# 
# Track frame offsets:
#      150
#      15759
#      31817
#      48974
#      63847
#      82468
#      101047
#      120297
#      138939
#      159602
#      175951
#      193288
#      211393
# 
# Disc length: 3092 seconds
# 
# Revision: 0 
# Processed by: cddbd v1.5.1PL2 Copyright (c) Steve Scherf et al.
# Submitted via: LOLA_Freedb v0.9beta0
# 
DISCID=aa0c120d
DTITLE=Rascal Flatts - My And My Gang
DYEAR=2006
DGENRE=
TTITLE0=Stands
TTITLE1=What Hurts The Most
TTITLE2=Backwards
TTITLE3=I Feel Bad
TTITLE4=My Wish
TTITLE5=Pieces
TTITLE6=Yes I Do
TTITLE7=To Make Her Love Me
TTITLE8=Words P Couldn´t Say
TTITLE9=Me And My Gang
TTITLE10=Cool Thing
TTITLE11=Ellsworth
TTITLE12=He Ain´t The Leavin` Kind
EXTD=
EXTT0=
EXTT1=
EXTT2=
EXTT3=
EXTT4=
EXTT5=
EXTT6=
EXTT7=
EXTT8=
EXTT9=
EXTT10=
EXTT11=
EXTT12=
PLAYORDER=
